<svg xmlns="http://www.w3.org/2000/svg" id="mermaid-1533236564540" width="100%" height="100%" viewBox="-50 -10 850 847" style="max-width:850px"><style>#mermaid-1533236564540 .actor{stroke:#ccf;fill:#ececff}#mermaid-1533236564540 text.actor{fill:#000;stroke:none}#mermaid-1533236564540 .actor-line{stroke:gray}#mermaid-1533236564540 .messageLine0{marker-end:&quot;url(#arrowhead)&quot;;stroke-width:1.5;stroke-dasharray:&quot;2 2&quot;;stroke:#333}#mermaid-1533236564540 #arrowhead{fill:#333}#mermaid-1533236564540 #crosshead path{fill:#333!important;stroke:#333!important}#mermaid-1533236564540 .messageText{fill:#333;stroke:none}#mermaid-1533236564540 .labelBox{stroke:#ccf;fill:#ececff}#mermaid-1533236564540 .labelText,#mermaid-1533236564540 .loopText{fill:#000;stroke:none}#mermaid-1533236564540 .loopLine{stroke-width:2;stroke-dasharray:&quot;2 2&quot;;marker-end:&quot;url(#arrowhead)&quot;;stroke:#ccf}#mermaid-1533236564540 .note{stroke:#aa3;fill:#fff5ad}#mermaid-1533236564540 .noteText{fill:#000;stroke:none;font-family:trebuchet ms,verdana,arial;font-size:14px}</style><style>#mermaid-1533236564540{color:#000;font:400 16px &quot;Times New Roman&quot;}</style><g><line id="actor0" x1="75" x2="75" y1="5" y2="836" stroke="#999" stroke-width=".5" class="actor-line"/><rect width="150" height="65" x="0" y="0" fill="#eaeaea" stroke="#666" class="actor" rx="3" ry="3"/><text x="75" y="32.5" alignment-baseline="central" class="actor" dominant-baseline="central" style="text-anchor:middle"><tspan x="75" dy="0">ClientApp</tspan></text></g><g><line id="actor1" x1="275" x2="275" y1="5" y2="836" stroke="#999" stroke-width=".5" class="actor-line"/><rect width="150" height="65" x="200" y="0" fill="#eaeaea" stroke="#666" class="actor" rx="3" ry="3"/><text x="275" y="32.5" alignment-baseline="central" class="actor" dominant-baseline="central" style="text-anchor:middle"><tspan x="275" dy="0">opae.PluginManager</tspan></text></g><g><line id="actor2" x1="475" x2="475" y1="5" y2="836" stroke="#999" stroke-width=".5" class="actor-line"/><rect width="150" height="65" x="400" y="0" fill="#eaeaea" stroke="#666" class="actor" rx="3" ry="3"/><text x="475" y="32.5" alignment-baseline="central" class="actor" dominant-baseline="central" style="text-anchor:middle"><tspan x="475" dy="0">N</tspan></text></g><g><line id="actor3" x1="675" x2="675" y1="5" y2="836" stroke="#999" stroke-width=".5" class="actor-line"/><rect width="150" height="65" x="600" y="0" fill="#eaeaea" stroke="#666" class="actor" rx="3" ry="3"/><text x="675" y="32.5" alignment-baseline="central" class="actor" dominant-baseline="central" style="text-anchor:middle"><tspan x="675" dy="0">P</tspan></text></g><defs><marker id="arrowhead" markerHeight="4" markerWidth="6" orient="auto" refX="5" refY="2"><path d="M 0,0 V 4 L6,2 Z"/></marker></defs><defs><marker id="crosshead" markerHeight="8" markerWidth="15" orient="auto" refX="16" refY="4"><path fill="#000" stroke="#000" stroke-width="1" d="M 9,2 V 6 L16,4 Z" style="stroke-dasharray:0,0"/><path fill="none" stroke="#000" stroke-width="1" d="M 0,1 L 6,7 M 6,1 L 0,7" style="stroke-dasharray:0,0"/></marker></defs><g><rect width="150" height="36" x="200" y="75" fill="#EDF2AE" stroke="#666" class="note" rx="0" ry="0"/><text x="196" y="99" fill="#000" class="noteText"><tspan x="216" fill="#000">Initalize can be implicit</tspan></text></g><g><text x="175" y="139" class="messageText" style="text-anchor:middle">Initialize(cfile)</text><line x1="75" x2="275" y1="146" y2="146" stroke="#000" stroke-width="2" marker-end="url(#arrowhead)" class="messageLine0" style="fill:none"/></g><g><text x="275" y="174" class="messageText" style="text-anchor:middle">ParseConfig(cfile)</text><path stroke="#000" stroke-width="2" marker-end="url(#arrowhead)" d="M 275,181 C 335,171 335,211 275,201" class="messageLine0" style="fill:none"/></g><g><text x="275" y="264" class="messageText" style="text-anchor:middle">InitializeAdapterTable() -&gt; a_table</text><path stroke="#000" stroke-width="2" marker-end="url(#arrowhead)" d="M 275,271 C 335,261 335,301 275,291" class="messageLine0" style="fill:none"/></g><g><text x="375" y="329" class="messageText" style="text-anchor:middle">PluginConfigure(a_table, cdata)</text><line x1="275" x2="475" y1="336" y2="336" stroke="#000" stroke-width="2" marker-end="url(#arrowhead)" class="messageLine0" style="fill:none"/></g><g><text x="475" y="364" class="messageText" style="text-anchor:middle">FillAdapterTable(a_table)</text><path stroke="#000" stroke-width="2" marker-end="url(#arrowhead)" d="M 475,371 C 535,361 535,401 475,391" class="messageLine0" style="fill:none"/></g><g><text x="375" y="454" class="messageText" style="text-anchor:middle">Initialize()</text><line x1="275" x2="475" y1="461" y2="461" stroke="#000" stroke-width="2" marker-end="url(#arrowhead)" class="messageLine0" style="fill:none"/></g><g><line x1="265" x2="485" y1="411" y2="411" class="loopLine"/><line x1="485" x2="485" y1="411" y2="471" class="loopLine"/><line x1="265" x2="485" y1="471" y2="471" class="loopLine"/><line x1="265" x2="265" y1="411" y2="471" class="loopLine"/><polygon points="265 411 315 411 315 424 306.6 431 265 431" class="labelBox"/><text x="272.5" y="426" fill="#000" class="labelText"><tspan x="272.5" fill="#000">opt</tspan></text><text x="375" y="426" fill="#000" class="loopText" style="text-anchor:middle"><tspan x="375" fill="#000">[ ]</tspan></text></g><g><line x1="153.555" x2="585" y1="221" y2="221" class="loopLine"/><line x1="585" x2="585" y1="221" y2="481" class="loopLine"/><line x1="153.555" x2="585" y1="481" y2="481" class="loopLine"/><line x1="153.555" x2="153.555" y1="221" y2="481" class="loopLine"/><polygon points="153.555 221 203.555 221 203.555 234 195.155 241 153.555 241" class="labelBox"/><text x="161.055" y="236" fill="#000" class="labelText"><tspan x="161.055" fill="#000">loop</tspan></text><text x="369.277" y="236" fill="#000" class="loopText" style="text-anchor:middle"><tspan x="369.277" fill="#000">[ ForEach(N in NativePlugins) ]</tspan></text></g><g><text x="275" y="534" class="messageText" style="text-anchor:middle">LoadPlugin(P)</text><path stroke="#000" stroke-width="2" marker-end="url(#arrowhead)" d="M 275,541 C 335,531 335,571 275,561" class="messageLine0" style="fill:none"/></g><g><rect width="10" height="168" x="670" y="573" fill="#f4f4f4" stroke="#666" rx="0" ry="0"/></g><g><text x="275" y="599" class="messageText" style="text-anchor:middle">InitializeAdapterTable()-&gt;a_table</text><path stroke="#000" stroke-width="2" marker-end="url(#arrowhead)" d="M 275,606 C 335,596 335,636 275,626" class="messageLine0" style="fill:none"/></g><g><text x="472.5" y="664" class="messageText" style="text-anchor:middle">PluginConfigure(a_table, cdata)</text><line x1="275" x2="670" y1="671" y2="671" stroke="#000" stroke-width="2" marker-end="url(#arrowhead)" class="messageLine0" style="fill:none"/></g><g><text x="472.5" y="724" class="messageText" style="text-anchor:middle">Initialize()</text><line x1="275" x2="670" y1="731" y2="731" stroke="#000" stroke-width="2" marker-end="url(#arrowhead)" class="messageLine0" style="fill:none"/></g><g><line x1="265" x2="690" y1="681" y2="681" class="loopLine"/><line x1="690" x2="690" y1="681" y2="741" class="loopLine"/><line x1="265" x2="690" y1="741" y2="741" class="loopLine"/><line x1="265" x2="265" y1="681" y2="741" class="loopLine"/><polygon points="265 681 315 681 315 694 306.6 701 265 701" class="labelBox"/><text x="272.5" y="696" fill="#000" class="labelText"><tspan x="272.5" fill="#000">opt</tspan></text><text x="477.5" y="696" fill="#000" class="loopText" style="text-anchor:middle"><tspan x="477.5" fill="#000">[ ]</tspan></text></g><g><line x1="157.555" x2="700" y1="491" y2="491" class="loopLine"/><line x1="700" x2="700" y1="491" y2="751" class="loopLine"/><line x1="157.555" x2="700" y1="751" y2="751" class="loopLine"/><line x1="157.555" x2="157.555" y1="491" y2="751" class="loopLine"/><polygon points="157.555 491 207.555 491 207.555 504 199.155 511 157.555 511" class="labelBox"/><text x="165.055" y="506" fill="#000" class="labelText"><tspan x="165.055" fill="#000">loop</tspan></text><text x="428.777" y="506" fill="#000" class="loopText" style="text-anchor:middle"><tspan x="428.777" fill="#000">[ ForEach(P in OtherPlugins) ]</tspan></text></g><g><rect width="150" height="65" x="0" y="771" fill="#eaeaea" stroke="#666" class="actor" rx="3" ry="3"/><text x="75" y="803.5" alignment-baseline="central" class="actor" dominant-baseline="central" style="text-anchor:middle"><tspan x="75" dy="0">ClientApp</tspan></text></g><g><rect width="150" height="65" x="200" y="771" fill="#eaeaea" stroke="#666" class="actor" rx="3" ry="3"/><text x="275" y="803.5" alignment-baseline="central" class="actor" dominant-baseline="central" style="text-anchor:middle"><tspan x="275" dy="0">opae.PluginManager</tspan></text></g><g><rect width="150" height="65" x="400" y="771" fill="#eaeaea" stroke="#666" class="actor" rx="3" ry="3"/><text x="475" y="803.5" alignment-baseline="central" class="actor" dominant-baseline="central" style="text-anchor:middle"><tspan x="475" dy="0">N</tspan></text></g><g><rect width="150" height="65" x="600" y="771" fill="#eaeaea" stroke="#666" class="actor" rx="3" ry="3"/><text x="675" y="803.5" alignment-baseline="central" class="actor" dominant-baseline="central" style="text-anchor:middle"><tspan x="675" dy="0">P</tspan></text></g></svg>