<svg xmlns="http://www.w3.org/2000/svg" id="mermaid-1533233041822" width="100%" height="100%" viewBox="-50 -10 850 612" style="max-width:850px"><style>#mermaid-1533233041822 .actor{stroke:#ccf;fill:#ececff}#mermaid-1533233041822 text.actor{fill:#000;stroke:none}#mermaid-1533233041822 .actor-line{stroke:gray}#mermaid-1533233041822 .messageLine0{marker-end:&quot;url(#arrowhead)&quot;}#mermaid-1533233041822 .messageLine0,#mermaid-1533233041822 .messageLine1{stroke-width:1.5;stroke-dasharray:&quot;2 2&quot;;stroke:#333}#mermaid-1533233041822 #arrowhead{fill:#333}#mermaid-1533233041822 #crosshead path{fill:#333!important;stroke:#333!important}#mermaid-1533233041822 .messageText{fill:#333;stroke:none}#mermaid-1533233041822 .note{stroke:#aa3;fill:#fff5ad}#mermaid-1533233041822 .noteText{fill:#000;stroke:none;font-family:trebuchet ms,verdana,arial;font-size:14px}</style><style>#mermaid-1533233041822{color:#000;font:400 16px &quot;Times New Roman&quot;}</style><g><line id="actor0" x1="75" x2="75" y1="5" y2="601" stroke="#999" stroke-width=".5" class="actor-line"/><rect width="150" height="65" x="0" y="0" fill="#eaeaea" stroke="#666" class="actor" rx="3" ry="3"/><text x="75" y="32.5" alignment-baseline="central" class="actor" dominant-baseline="central" style="text-anchor:middle"><tspan x="75" dy="0">opae</tspan></text></g><g><line id="actor1" x1="275" x2="275" y1="5" y2="601" stroke="#999" stroke-width=".5" class="actor-line"/><rect width="150" height="65" x="200" y="0" fill="#eaeaea" stroke="#666" class="actor" rx="3" ry="3"/><text x="275" y="32.5" alignment-baseline="central" class="actor" dominant-baseline="central" style="text-anchor:middle"><tspan x="275" dy="0">ProxyPlugin</tspan></text></g><g><line id="actor2" x1="475" x2="475" y1="5" y2="601" stroke="#999" stroke-width=".5" class="actor-line"/><rect width="150" height="65" x="400" y="0" fill="#eaeaea" stroke="#666" class="actor" rx="3" ry="3"/><text x="475" y="32.5" alignment-baseline="central" class="actor" dominant-baseline="central" style="text-anchor:middle"><tspan x="475" dy="0">RemoteEndpoint</tspan></text></g><g><line id="actor3" x1="675" x2="675" y1="5" y2="601" stroke="#999" stroke-width=".5" class="actor-line"/><rect width="150" height="65" x="600" y="0" fill="#eaeaea" stroke="#666" class="actor" rx="3" ry="3"/><text x="675" y="32.5" alignment-baseline="central" class="actor" dominant-baseline="central" style="text-anchor:middle"><tspan x="675" dy="0">remote_opae</tspan></text></g><defs><marker id="arrowhead" markerHeight="4" markerWidth="6" orient="auto" refX="5" refY="2"><path d="M 0,0 V 4 L6,2 Z"/></marker></defs><defs><marker id="crosshead" markerHeight="8" markerWidth="15" orient="auto" refX="16" refY="4"><path fill="#000" stroke="#000" stroke-width="1" d="M 9,2 V 6 L16,4 Z" style="stroke-dasharray:0,0"/><path fill="none" stroke="#000" stroke-width="1" d="M 0,1 L 6,7 M 6,1 L 0,7" style="stroke-dasharray:0,0"/></marker></defs><g><text x="175" y="93" class="messageText" style="text-anchor:middle">fpgaEnumerate(filter)</text><line x1="75" x2="275" y1="100" y2="100" stroke="#000" stroke-width="2" marker-end="url(#arrowhead)" class="messageLine0" style="fill:none"/></g><g><text x="275" y="128" class="messageText" style="text-anchor:middle">make_message(type=enum, payload=filter)-&gt;msg</text><path stroke="#000" stroke-width="2" marker-end="url(#arrowhead)" d="M 275,135 C 335,125 335,165 275,155" class="messageLine0" style="fill:none"/></g><g><text x="375" y="193" class="messageText" style="text-anchor:middle">send_msg(msg)</text><line x1="275" x2="475" y1="200" y2="200" stroke="#000" stroke-width="2" marker-end="url(#arrowhead)" class="messageLine0" style="fill:none"/></g><g><text x="575" y="228" class="messageText" style="text-anchor:middle">fpgaEnumerate(filter)</text><line x1="475" x2="675" y1="235" y2="235" stroke="#000" stroke-width="2" marker-end="url(#arrowhead)" class="messageLine0" style="fill:none"/></g><g><text x="575" y="263" class="messageText" style="text-anchor:middle">tokens</text><line x1="675" x2="475" y1="270" y2="270" stroke="#000" stroke-width="2" marker-end="url(#arrowhead)" class="messageLine1" style="stroke-dasharray:3,3;fill:none"/></g><g><text x="475" y="298" class="messageText" style="text-anchor:middle">make_response(tokens)-&gt;resp</text><path stroke="#000" stroke-width="2" marker-end="url(#arrowhead)" d="M 475,305 C 535,295 535,335 475,325" class="messageLine0" style="fill:none"/></g><g><text x="375" y="363" class="messageText" style="text-anchor:middle">resp</text><line x1="475" x2="275" y1="370" y2="370" stroke="#000" stroke-width="2" marker-end="url(#arrowhead)" class="messageLine1" style="stroke-dasharray:3,3;fill:none"/></g><g><text x="275" y="398" class="messageText" style="text-anchor:middle">unpack(resp)-&gt;proxy_tokens</text><path stroke="#000" stroke-width="2" marker-end="url(#arrowhead)" d="M 275,405 C 335,395 335,435 275,425" class="messageLine0" style="fill:none"/></g><g><text x="175" y="463" class="messageText" style="text-anchor:middle">proxy_tokens</text><line x1="275" x2="75" y1="470" y2="470" stroke="#000" stroke-width="2" marker-end="url(#arrowhead)" class="messageLine1" style="stroke-dasharray:3,3;fill:none"/></g><g><rect width="150" height="36" x="0" y="480" fill="#EDF2AE" stroke="#666" class="note" rx="0" ry="0"/><text x="-4" y="504" fill="#000" class="noteText"><tspan x="16" fill="#000">proxy_tokens wrapped into tokens</tspan></text></g><g><rect width="150" height="65" x="0" y="536" fill="#eaeaea" stroke="#666" class="actor" rx="3" ry="3"/><text x="75" y="568.5" alignment-baseline="central" class="actor" dominant-baseline="central" style="text-anchor:middle"><tspan x="75" dy="0">opae</tspan></text></g><g><rect width="150" height="65" x="200" y="536" fill="#eaeaea" stroke="#666" class="actor" rx="3" ry="3"/><text x="275" y="568.5" alignment-baseline="central" class="actor" dominant-baseline="central" style="text-anchor:middle"><tspan x="275" dy="0">ProxyPlugin</tspan></text></g><g><rect width="150" height="65" x="400" y="536" fill="#eaeaea" stroke="#666" class="actor" rx="3" ry="3"/><text x="475" y="568.5" alignment-baseline="central" class="actor" dominant-baseline="central" style="text-anchor:middle"><tspan x="475" dy="0">RemoteEndpoint</tspan></text></g><g><rect width="150" height="65" x="600" y="536" fill="#eaeaea" stroke="#666" class="actor" rx="3" ry="3"/><text x="675" y="568.5" alignment-baseline="central" class="actor" dominant-baseline="central" style="text-anchor:middle"><tspan x="675" dy="0">remote_opae</tspan></text></g></svg>