<svg xmlns="http://www.w3.org/2000/svg" id="mermaid-1533103902053" width="100%" height="100%" viewBox="-50 -10 890 944" style="max-width:890px"><style>#mermaid-1533103902053 .actor{stroke:#ccf;fill:#ececff}#mermaid-1533103902053 text.actor{fill:#000;stroke:none}#mermaid-1533103902053 .actor-line{stroke:gray}#mermaid-1533103902053 .messageLine0{marker-end:&quot;url(#arrowhead)&quot;;stroke-width:1.5;stroke-dasharray:&quot;2 2&quot;;stroke:#333}#mermaid-1533103902053 #arrowhead{fill:#333}#mermaid-1533103902053 #crosshead path{fill:#333!important;stroke:#333!important}#mermaid-1533103902053 .messageText{fill:#333;stroke:none}#mermaid-1533103902053 .labelBox{stroke:#ccf;fill:#ececff}#mermaid-1533103902053 .labelText,#mermaid-1533103902053 .loopText{fill:#000;stroke:none}#mermaid-1533103902053 .loopLine{stroke-width:2;stroke-dasharray:&quot;2 2&quot;;marker-end:&quot;url(#arrowhead)&quot;;stroke:#ccf}#mermaid-1533103902053 .note{stroke:#aa3;fill:#fff5ad}#mermaid-1533103902053 .noteText{fill:#000;stroke:none;font-family:trebuchet ms,verdana,arial;font-size:14px}</style><style>#mermaid-1533103902053{color:#000;font:400 16px &quot;Times New Roman&quot;}</style><g><line id="actor0" x1="75" x2="75" y1="5" y2="933" stroke="#999" stroke-width=".5" class="actor-line"/><rect width="150" height="65" x="0" y="0" fill="#eaeaea" stroke="#666" class="actor" rx="3" ry="3"/><text x="75" y="32.5" alignment-baseline="central" class="actor" dominant-baseline="central" style="text-anchor:middle"><tspan x="75" dy="0">ClientApp</tspan></text></g><g><line id="actor1" x1="275" x2="275" y1="5" y2="933" stroke="#999" stroke-width=".5" class="actor-line"/><rect width="150" height="65" x="200" y="0" fill="#eaeaea" stroke="#666" class="actor" rx="3" ry="3"/><text x="275" y="32.5" alignment-baseline="central" class="actor" dominant-baseline="central" style="text-anchor:middle"><tspan x="275" dy="0">opae.PluginManager</tspan></text></g><g><line id="actor2" x1="475" x2="475" y1="5" y2="933" stroke="#999" stroke-width=".5" class="actor-line"/><rect width="150" height="65" x="400" y="0" fill="#eaeaea" stroke="#666" class="actor" rx="3" ry="3"/><text x="475" y="32.5" alignment-baseline="central" class="actor" dominant-baseline="central" style="text-anchor:middle"><tspan x="475" dy="0">N</tspan></text></g><g><line id="actor3" x1="675" x2="675" y1="5" y2="933" stroke="#999" stroke-width=".5" class="actor-line"/><rect width="150" height="65" x="600" y="0" fill="#eaeaea" stroke="#666" class="actor" rx="3" ry="3"/><text x="675" y="32.5" alignment-baseline="central" class="actor" dominant-baseline="central" style="text-anchor:middle"><tspan x="675" dy="0">P</tspan></text></g><defs><marker id="arrowhead" markerHeight="4" markerWidth="6" orient="auto" refX="5" refY="2"><path d="M 0,0 V 4 L6,2 Z"/></marker></defs><defs><marker id="crosshead" markerHeight="8" markerWidth="15" orient="auto" refX="16" refY="4"><path fill="#000" stroke="#000" stroke-width="1" d="M 9,2 V 6 L16,4 Z" style="stroke-dasharray:0,0"/><path fill="none" stroke="#000" stroke-width="1" d="M 0,1 L 6,7 M 6,1 L 0,7" style="stroke-dasharray:0,0"/></marker></defs><g><rect width="150" height="36" x="200" y="75" fill="#EDF2AE" stroke="#666" class="note" rx="0" ry="0"/><text x="196" y="99" fill="#000" class="noteText"><tspan x="216" fill="#000">Initalize can be implicit</tspan></text></g><g><text x="175" y="139" class="messageText" style="text-anchor:middle">Initialize(cfile)</text><line x1="75" x2="275" y1="146" y2="146" stroke="#000" stroke-width="2" marker-end="url(#arrowhead)" class="messageLine0" style="fill:none"/></g><g><text x="475" y="199" class="messageText" style="text-anchor:middle">CreateAdapterTable()</text><path stroke="#000" stroke-width="2" marker-end="url(#arrowhead)" d="M 475,206 C 535,196 535,236 475,226" class="messageLine0" style="fill:none"/></g><g><rect width="150" height="36" x="400" y="246" fill="#EDF2AE" stroke="#666" class="note" rx="0" ry="0"/><text x="396" y="270" fill="#000" class="noteText"><tspan x="416" fill="#000">Map Plugin FN Ptrs</tspan></text></g><g><text x="375" y="310" class="messageText" style="text-anchor:middle">Register(AdapterTable)</text><line x1="475" x2="275" y1="317" y2="317" stroke="#000" stroke-width="2" marker-end="url(#arrowhead)" class="messageLine0" style="fill:none"/></g><g><text x="375" y="370" class="messageText" style="text-anchor:middle">Configure(cdata)</text><line x1="275" x2="475" y1="377" y2="377" stroke="#000" stroke-width="2" marker-end="url(#arrowhead)" class="messageLine0" style="fill:none"/></g><g><text x="375" y="405" class="messageText" style="text-anchor:middle">Initialize()</text><line x1="275" x2="475" y1="412" y2="412" stroke="#000" stroke-width="2" marker-end="url(#arrowhead)" class="messageLine0" style="fill:none"/></g><g><line x1="265" x2="485" y1="327" y2="327" class="loopLine"/><line x1="485" x2="485" y1="327" y2="422" class="loopLine"/><line x1="265" x2="485" y1="422" y2="422" class="loopLine"/><line x1="265" x2="265" y1="327" y2="422" class="loopLine"/><polygon points="265 327 315 327 315 340 306.6 347 265 347" class="labelBox"/><text x="272.5" y="342" fill="#000" class="labelText"><tspan x="272.5" fill="#000">opt</tspan></text><text x="375" y="342" fill="#000" class="loopText" style="text-anchor:middle"><tspan x="375" fill="#000">[ ]</tspan></text></g><g><line x1="255" x2="585" y1="156" y2="156" class="loopLine"/><line x1="585" x2="585" y1="156" y2="432" class="loopLine"/><line x1="255" x2="585" y1="432" y2="432" class="loopLine"/><line x1="255" x2="255" y1="156" y2="432" class="loopLine"/><polygon points="255 156 305 156 305 169 296.6 176 255 176" class="labelBox"/><text x="262.5" y="171" fill="#000" class="labelText"><tspan x="262.5" fill="#000">loop</tspan></text><text x="420" y="171" fill="#000" class="loopText" style="text-anchor:middle"><tspan x="420" fill="#000">[ ForEach(N in NativePlugins) ]</tspan></text></g><g><text x="275" y="460" class="messageText" style="text-anchor:middle">ParseConfig(cfile)</text><path stroke="#000" stroke-width="2" marker-end="url(#arrowhead)" d="M 275,467 C 335,457 335,497 275,487" class="messageLine0" style="fill:none"/></g><g><text x="275" y="550" class="messageText" style="text-anchor:middle">LoadPlugin(P)</text><path stroke="#000" stroke-width="2" marker-end="url(#arrowhead)" d="M 275,557 C 335,547 335,587 275,577" class="messageLine0" style="fill:none"/></g><g><rect width="10" height="249" x="670" y="589" fill="#f4f4f4" stroke="#666" rx="0" ry="0"/></g><g><text x="680" y="615" class="messageText" style="text-anchor:middle">CreateAdapterTable()</text><path stroke="#000" stroke-width="2" marker-end="url(#arrowhead)" d="M 680,622 C 740,612 740,652 680,642" class="messageLine0" style="fill:none"/></g><g><rect width="150" height="36" x="600" y="662" fill="#EDF2AE" stroke="#666" class="note" rx="0" ry="0"/><text x="596" y="686" fill="#000" class="noteText"><tspan x="616" fill="#000">Map Plugin FN Ptrs</tspan></text></g><g><text x="472.5" y="726" class="messageText" style="text-anchor:middle">Register(AdapterTable)</text><line x1="670" x2="275" y1="733" y2="733" stroke="#000" stroke-width="2" marker-end="url(#arrowhead)" class="messageLine0" style="fill:none"/></g><g><text x="472.5" y="786" class="messageText" style="text-anchor:middle">Configure(cdata)</text><line x1="275" x2="670" y1="793" y2="793" stroke="#000" stroke-width="2" marker-end="url(#arrowhead)" class="messageLine0" style="fill:none"/></g><g><text x="472.5" y="821" class="messageText" style="text-anchor:middle">Initialize()</text><line x1="275" x2="670" y1="828" y2="828" stroke="#000" stroke-width="2" marker-end="url(#arrowhead)" class="messageLine0" style="fill:none"/></g><g><line x1="265" x2="690" y1="743" y2="743" class="loopLine"/><line x1="690" x2="690" y1="743" y2="838" class="loopLine"/><line x1="265" x2="690" y1="838" y2="838" class="loopLine"/><line x1="265" x2="265" y1="743" y2="838" class="loopLine"/><polygon points="265 743 315 743 315 756 306.6 763 265 763" class="labelBox"/><text x="272.5" y="758" fill="#000" class="labelText"><tspan x="272.5" fill="#000">opt</tspan></text><text x="477.5" y="758" fill="#000" class="loopText" style="text-anchor:middle"><tspan x="477.5" fill="#000">[ ]</tspan></text></g><g><line x1="165" x2="790" y1="507" y2="507" class="loopLine"/><line x1="790" x2="790" y1="507" y2="848" class="loopLine"/><line x1="165" x2="790" y1="848" y2="848" class="loopLine"/><line x1="165" x2="165" y1="507" y2="848" class="loopLine"/><polygon points="165 507 215 507 215 520 206.6 527 165 527" class="labelBox"/><text x="172.5" y="522" fill="#000" class="labelText"><tspan x="172.5" fill="#000">loop</tspan></text><text x="477.5" y="522" fill="#000" class="loopText" style="text-anchor:middle"><tspan x="477.5" fill="#000">[ ForEach(P in OtherPlugins) ]</tspan></text></g><g><rect width="150" height="65" x="0" y="868" fill="#eaeaea" stroke="#666" class="actor" rx="3" ry="3"/><text x="75" y="900.5" alignment-baseline="central" class="actor" dominant-baseline="central" style="text-anchor:middle"><tspan x="75" dy="0">ClientApp</tspan></text></g><g><rect width="150" height="65" x="200" y="868" fill="#eaeaea" stroke="#666" class="actor" rx="3" ry="3"/><text x="275" y="900.5" alignment-baseline="central" class="actor" dominant-baseline="central" style="text-anchor:middle"><tspan x="275" dy="0">opae.PluginManager</tspan></text></g><g><rect width="150" height="65" x="400" y="868" fill="#eaeaea" stroke="#666" class="actor" rx="3" ry="3"/><text x="475" y="900.5" alignment-baseline="central" class="actor" dominant-baseline="central" style="text-anchor:middle"><tspan x="475" dy="0">N</tspan></text></g><g><rect width="150" height="65" x="600" y="868" fill="#eaeaea" stroke="#666" class="actor" rx="3" ry="3"/><text x="675" y="900.5" alignment-baseline="central" class="actor" dominant-baseline="central" style="text-anchor:middle"><tspan x="675" dy="0">P</tspan></text></g></svg>