<svg xmlns="http://www.w3.org/2000/svg" id="mermaid-1533165298308" width="100%" height="100%" viewBox="-50 -10 650 436" style="max-width:650px"><style>#mermaid-1533165298308 .actor{stroke:#ccf;fill:#ececff}#mermaid-1533165298308 text.actor{fill:#000;stroke:none}#mermaid-1533165298308 .actor-line{stroke:gray}#mermaid-1533165298308 .messageLine0{marker-end:&quot;url(#arrowhead)&quot;}#mermaid-1533165298308 .messageLine0,#mermaid-1533165298308 .messageLine1{stroke-width:1.5;stroke-dasharray:&quot;2 2&quot;;stroke:#333}#mermaid-1533165298308 #arrowhead{fill:#333}#mermaid-1533165298308 #crosshead path{fill:#333!important;stroke:#333!important}#mermaid-1533165298308 .messageText{fill:#333;stroke:none}#mermaid-1533165298308 .labelBox{stroke:#ccf;fill:#ececff}#mermaid-1533165298308 .labelText,#mermaid-1533165298308 .loopText{fill:#000;stroke:none}#mermaid-1533165298308 .loopLine{stroke-width:2;stroke-dasharray:&quot;2 2&quot;;marker-end:&quot;url(#arrowhead)&quot;;stroke:#ccf}</style><style>#mermaid-1533165298308{color:#000;font:400 16px &quot;Times New Roman&quot;}</style><g><line id="actor0" x1="75" x2="75" y1="5" y2="425" stroke="#999" stroke-width=".5" class="actor-line"/><rect width="150" height="65" x="0" y="0" fill="#eaeaea" stroke="#666" class="actor" rx="3" ry="3"/><text x="75" y="32.5" alignment-baseline="central" class="actor" dominant-baseline="central" style="text-anchor:middle"><tspan x="75" dy="0">ClientApp</tspan></text></g><g><line id="actor1" x1="275" x2="275" y1="5" y2="425" stroke="#999" stroke-width=".5" class="actor-line"/><rect width="150" height="65" x="200" y="0" fill="#eaeaea" stroke="#666" class="actor" rx="3" ry="3"/><text x="275" y="32.5" alignment-baseline="central" class="actor" dominant-baseline="central" style="text-anchor:middle"><tspan x="275" dy="0">opae</tspan></text></g><g><line id="actor2" x1="475" x2="475" y1="5" y2="425" stroke="#999" stroke-width=".5" class="actor-line"/><rect width="150" height="65" x="400" y="0" fill="#eaeaea" stroke="#666" class="actor" rx="3" ry="3"/><text x="475" y="32.5" alignment-baseline="central" class="actor" dominant-baseline="central" style="text-anchor:middle"><tspan x="475" dy="0">A</tspan></text></g><defs><marker id="arrowhead" markerHeight="4" markerWidth="6" orient="auto" refX="5" refY="2"><path d="M 0,0 V 4 L6,2 Z"/></marker></defs><defs><marker id="crosshead" markerHeight="8" markerWidth="15" orient="auto" refX="16" refY="4"><path fill="#000" stroke="#000" stroke-width="1" d="M 9,2 V 6 L16,4 Z" style="stroke-dasharray:0,0"/><path fill="none" stroke="#000" stroke-width="1" d="M 0,1 L 6,7 M 6,1 L 0,7" style="stroke-dasharray:0,0"/></marker></defs><g><text x="175" y="93" class="messageText" style="text-anchor:middle">fpgaEnumerate(filter)</text><line x1="75" x2="275" y1="100" y2="100" stroke="#000" stroke-width="2" marker-end="url(#arrowhead)" class="messageLine0" style="fill:none"/></g><g><text x="375" y="153" class="messageText" style="text-anchor:middle">fpgaEnumerate(filter)</text><line x1="275" x2="475" y1="160" y2="160" stroke="#000" stroke-width="2" marker-end="url(#arrowhead)" class="messageLine0" style="fill:none"/></g><g><text x="375" y="188" class="messageText" style="text-anchor:middle">A_tokens</text><line x1="475" x2="275" y1="195" y2="195" stroke="#000" stroke-width="2" marker-end="url(#arrowhead)" class="messageLine1" style="stroke-dasharray:3,3;fill:none"/></g><g><text x="275" y="248" class="messageText" style="text-anchor:middle">wrap(A_token)</text><path stroke="#000" stroke-width="2" marker-end="url(#arrowhead)" d="M 275,255 C 335,245 335,285 275,275" class="messageLine1" style="stroke-dasharray:3,3;fill:none"/></g><g><line x1="165" x2="385" y1="205" y2="205" class="loopLine"/><line x1="385" x2="385" y1="205" y2="295" class="loopLine"/><line x1="165" x2="385" y1="295" y2="295" class="loopLine"/><line x1="165" x2="165" y1="205" y2="295" class="loopLine"/><polygon points="165 205 215 205 215 218 206.6 225 165 225" class="labelBox"/><text x="172.5" y="220" fill="#000" class="labelText"><tspan x="172.5" fill="#000">loop</tspan></text><text x="275" y="220" fill="#000" class="loopText" style="text-anchor:middle"><tspan x="275" fill="#000">[ ForEach(A_tok in A_tokens) ]</tspan></text></g><g><text x="175" y="323" class="messageText" style="text-anchor:middle">tokens</text><line x1="275" x2="75" y1="330" y2="330" stroke="#000" stroke-width="2" marker-end="url(#arrowhead)" class="messageLine1" style="stroke-dasharray:3,3;fill:none"/></g><g><line x1="65" x2="485" y1="110" y2="110" class="loopLine"/><line x1="485" x2="485" y1="110" y2="340" class="loopLine"/><line x1="65" x2="485" y1="340" y2="340" class="loopLine"/><line x1="65" x2="65" y1="110" y2="340" class="loopLine"/><polygon points="65 110 115 110 115 123 106.6 130 65 130" class="labelBox"/><text x="72.5" y="125" fill="#000" class="labelText"><tspan x="72.5" fill="#000">loop</tspan></text><text x="275" y="125" fill="#000" class="loopText" style="text-anchor:middle"><tspan x="275" fill="#000">[ ForEach(A in AdapterTables(filter)) ]</tspan></text></g><g><rect width="150" height="65" x="0" y="360" fill="#eaeaea" stroke="#666" class="actor" rx="3" ry="3"/><text x="75" y="392.5" alignment-baseline="central" class="actor" dominant-baseline="central" style="text-anchor:middle"><tspan x="75" dy="0">ClientApp</tspan></text></g><g><rect width="150" height="65" x="200" y="360" fill="#eaeaea" stroke="#666" class="actor" rx="3" ry="3"/><text x="275" y="392.5" alignment-baseline="central" class="actor" dominant-baseline="central" style="text-anchor:middle"><tspan x="275" dy="0">opae</tspan></text></g><g><rect width="150" height="65" x="400" y="360" fill="#eaeaea" stroke="#666" class="actor" rx="3" ry="3"/><text x="475" y="392.5" alignment-baseline="central" class="actor" dominant-baseline="central" style="text-anchor:middle"><tspan x="475" dy="0">A</tspan></text></g></svg>