<svg xmlns="http://www.w3.org/2000/svg" id="mermaid-1533165977937" width="100%" height="100%" viewBox="-50 -10 650 431" style="max-width:650px"><style>#mermaid-1533165977937 .actor{stroke:#ccf;fill:#ececff}#mermaid-1533165977937 text.actor{fill:#000;stroke:none}#mermaid-1533165977937 .actor-line{stroke:gray}#mermaid-1533165977937 .messageLine0{marker-end:&quot;url(#arrowhead)&quot;}#mermaid-1533165977937 .messageLine0,#mermaid-1533165977937 .messageLine1{stroke-width:1.5;stroke-dasharray:&quot;2 2&quot;;stroke:#333}#mermaid-1533165977937 #arrowhead{fill:#333}#mermaid-1533165977937 #crosshead path{fill:#333!important;stroke:#333!important}#mermaid-1533165977937 .messageText{fill:#333;stroke:none}</style><style>#mermaid-1533165977937{color:#000;font:400 16px &quot;Times New Roman&quot;}</style><g><line id="actor0" x1="75" x2="75" y1="5" y2="420" stroke="#999" stroke-width=".5" class="actor-line"/><rect width="150" height="65" x="0" y="0" fill="#eaeaea" stroke="#666" class="actor" rx="3" ry="3"/><text x="75" y="32.5" alignment-baseline="central" class="actor" dominant-baseline="central" style="text-anchor:middle"><tspan x="75" dy="0">ClientApp</tspan></text></g><g><line id="actor1" x1="275" x2="275" y1="5" y2="420" stroke="#999" stroke-width=".5" class="actor-line"/><rect width="150" height="65" x="200" y="0" fill="#eaeaea" stroke="#666" class="actor" rx="3" ry="3"/><text x="275" y="32.5" alignment-baseline="central" class="actor" dominant-baseline="central" style="text-anchor:middle"><tspan x="275" dy="0">opae</tspan></text></g><g><line id="actor2" x1="475" x2="475" y1="5" y2="420" stroke="#999" stroke-width=".5" class="actor-line"/><rect width="150" height="65" x="400" y="0" fill="#eaeaea" stroke="#666" class="actor" rx="3" ry="3"/><text x="475" y="32.5" alignment-baseline="central" class="actor" dominant-baseline="central" style="text-anchor:middle"><tspan x="475" dy="0">plugin A</tspan></text></g><defs><marker id="arrowhead" markerHeight="4" markerWidth="6" orient="auto" refX="5" refY="2"><path d="M 0,0 V 4 L6,2 Z"/></marker></defs><defs><marker id="crosshead" markerHeight="8" markerWidth="15" orient="auto" refX="16" refY="4"><path fill="#000" stroke="#000" stroke-width="1" d="M 9,2 V 6 L16,4 Z" style="stroke-dasharray:0,0"/><path fill="none" stroke="#000" stroke-width="1" d="M 0,1 L 6,7 M 6,1 L 0,7" style="stroke-dasharray:0,0"/></marker></defs><g><text x="175" y="93" class="messageText" style="text-anchor:middle">fpgaOpen(token)</text><line x1="75" x2="275" y1="100" y2="100" stroke="#000" stroke-width="2" marker-end="url(#arrowhead)" class="messageLine0" style="fill:none"/></g><g><text x="275" y="128" class="messageText" style="text-anchor:middle">unwrap(token)-&gt;(adapter_table, A_token)</text><path stroke="#000" stroke-width="2" marker-end="url(#arrowhead)" d="M 275,135 C 335,125 335,165 275,155" class="messageLine0" style="fill:none"/></g><g><text x="375" y="193" class="messageText" style="text-anchor:middle">fpgaOpen(A_token)</text><line x1="275" x2="475" y1="200" y2="200" stroke="#000" stroke-width="2" marker-end="url(#arrowhead)" class="messageLine0" style="fill:none"/></g><g><text x="375" y="228" class="messageText" style="text-anchor:middle">A_handle</text><line x1="475" x2="275" y1="235" y2="235" stroke="#000" stroke-width="2" marker-end="url(#arrowhead)" class="messageLine1" style="stroke-dasharray:3,3;fill:none"/></g><g><text x="275" y="263" class="messageText" style="text-anchor:middle">wrap(A_handle)-&gt;handle</text><path stroke="#000" stroke-width="2" marker-end="url(#arrowhead)" d="M 275,270 C 335,260 335,300 275,290" class="messageLine0" style="fill:none"/></g><g><text x="175" y="328" class="messageText" style="text-anchor:middle">handle</text><line x1="275" x2="75" y1="335" y2="335" stroke="#000" stroke-width="2" marker-end="url(#arrowhead)" class="messageLine1" style="stroke-dasharray:3,3;fill:none"/></g><g><rect width="150" height="65" x="0" y="355" fill="#eaeaea" stroke="#666" class="actor" rx="3" ry="3"/><text x="75" y="387.5" alignment-baseline="central" class="actor" dominant-baseline="central" style="text-anchor:middle"><tspan x="75" dy="0">ClientApp</tspan></text></g><g><rect width="150" height="65" x="200" y="355" fill="#eaeaea" stroke="#666" class="actor" rx="3" ry="3"/><text x="275" y="387.5" alignment-baseline="central" class="actor" dominant-baseline="central" style="text-anchor:middle"><tspan x="275" dy="0">opae</tspan></text></g><g><rect width="150" height="65" x="400" y="355" fill="#eaeaea" stroke="#666" class="actor" rx="3" ry="3"/><text x="475" y="387.5" alignment-baseline="central" class="actor" dominant-baseline="central" style="text-anchor:middle"><tspan x="475" dy="0">plugin A</tspan></text></g></svg>